<svg xmlns="http://www.w3.org/2000/svg" xmlns:xlink="http://www.w3.org/1999/xlink" viewBox="0 0 23.22 29.57"><defs><style>.cls-1{fill:none;}.cls-2{clip-path:url(#clip-path);}.cls-3{fill:#fff;}</style><clipPath id="clip-path" transform="translate(0 0)"><rect class="cls-1" width="23.22" height="29.57"/></clipPath></defs><title>Ativo 1</title><g id="Camada_2" data-name="Camada 2"><g id="Camada_1-2" data-name="Camada 1"><g class="cls-2"><path class="cls-3" d="M23.22,11.46A11.54,11.54,0,0,0,11.61,0,11.54,11.54,0,0,0,0,11.46a11.34,11.34,0,0,0,1.63,5.86l0,0a.56.56,0,0,0,.05.08C4.4,22,11.61,29.57,11.61,29.57s7.21-7.6,9.91-12.14a.22.22,0,0,0,.05-.08l0,0a11.34,11.34,0,0,0,1.63-5.86M11.61,17.69a6.23,6.23,0,1,1,6.31-6.23,6.27,6.27,0,0,1-6.31,6.23" transform="translate(0 0)"/></g></g></g></svg>