<svg xmlns="http://www.w3.org/2000/svg" xmlns:xlink="http://www.w3.org/1999/xlink" viewBox="0 0 17.18 28.36"><defs><style>.cls-1{fill:none;}.cls-2{clip-path:url(#clip-path);}.cls-3{fill:#fff;}</style><clipPath id="clip-path" transform="translate(0 0)"><rect class="cls-1" width="17.18" height="28.36"/></clipPath></defs><title>Ativo 1</title><g id="Camada_2" data-name="Camada 2"><g id="Camada_1-2" data-name="Camada 1"><g class="cls-2"><path class="cls-3" d="M.48,2.33A26.72,26.72,0,0,0,1.68,16.7a26.81,26.81,0,0,0,8.87,11.36,3.13,3.13,0,0,0,2.44.09,27.78,27.78,0,0,0,3.78-2.68c.3-.26.55-.51.31-1s-3.66-6-4-6.3a1.1,1.1,0,0,0-1.15-.08c-.29.11-3,1.77-3.29,2A.63.63,0,0,1,7.68,20a18.6,18.6,0,0,1-2.82-4.57,18.32,18.32,0,0,1-1-5.28c0-.52.29-.59.64-.65s3.46-.68,3.74-.79A1.09,1.09,0,0,0,9,7.89C9.07,7.39,7.86,1,7.7.52S7.2,0,6.8,0A29.08,29.08,0,0,0,2.2.6,3.12,3.12,0,0,0,.48,2.33" transform="translate(0 0)"/></g></g></g></svg>