<svg xmlns="http://www.w3.org/2000/svg" xmlns:xlink="http://www.w3.org/1999/xlink" viewBox="0 0 243.85 178.31"><defs><style>.cls-1{fill:none;}.cls-2{clip-path:url(#clip-path);}.cls-3{fill:url(#Gradiente_sem_nome_3);}.cls-4{clip-path:url(#clip-path-2);}.cls-5{fill:url(#Gradiente_sem_nome_3-2);}.cls-6{clip-path:url(#clip-path-3);}.cls-7{fill:url(#Gradiente_sem_nome_3-3);}</style><clipPath id="clip-path" transform="translate(0 0)"><path class="cls-1" d="M88.34,129.23c-13.73,4.17-25.46,7.71-37.13,10.13q-5,19.5-9.9,38.95H83.15q6.61-25.89,13.27-51.84c-2.62.92-5.3,1.84-8.08,2.76M171.2,80.28c-14.28,15.6-33.83,29.93-63.9,42h1c24.32,0,36.74-2.17,47.1-8.29a55.57,55.57,0,0,0,18.46-17c5.76-8.57,10.1-21.74,10.95-29.06,1-8.63,1.27-13.67-1.76-19.66-.11-.22-.23-.42-.33-.64,2.75,8.52.33,19.69-11.47,32.57M113.44,60.43h16.28c8.3,0,13.73,4,14.42,9.39.91,7.37-5,17.06-12.69,19.6-3.69,1.19-8.1,1.19-11.93,1.19h-14q3.92-15.08,7.87-30.18M80.82,65.14c-14.34,15.29-20.52,34.05,3.7,46.74-10.69-1.7-19.48-8.43-21.61-18.62Q57.48,114.68,52,136.1a306.62,306.62,0,0,0,37.78-11.38C117.5,114.5,143.46,100,164.92,77.81c14.17-14.64,20.37-36.59-5.13-47.41a.79.79,0,0,0,.23,0,66.14,66.14,0,0,0-16-1.92c-4.32,0-8.6,0-12.88-.05-18.5,9.21-35.43,20.83-50.31,36.69M69.25,68.26c1.28-2,2.76-4,4.42-6,8.47-10.45,25.43-23.13,47-33.82q-20.64,0-41.28-.14-5.1,20-10.17,40"/></clipPath><linearGradient id="Gradiente_sem_nome_3" x1="-12.91" y1="455.89" x2="-11.91" y2="455.89" gradientTransform="matrix(144.15, 0, 0, -144.15, 1902.53, 65817.68)" gradientUnits="userSpaceOnUse"><stop offset="0" stop-color="#fff"/><stop offset="1" stop-color="#e6e6e6"/></linearGradient><clipPath id="clip-path-2" transform="translate(0 0)"><path class="cls-1" d="M237.08,0a187.42,187.42,0,0,0-40.17,4.83c-15.76,3.48-31.71,8.6-47.79,14.28C112.55,33.89,87.48,52.05,71.79,73c-12.75,17.27-3.6,33.94,12.75,39-16.12-8-16.18-23.91-6.15-36.83C97.28,50.71,122.55,35,150.46,22.42A249.65,249.65,0,0,1,197,6.3,230.92,230.92,0,0,1,243.85.15h0Q240.69,0,237.51,0Z"/></clipPath><linearGradient id="Gradiente_sem_nome_3-2" x1="-12.94" y1="455.53" x2="-11.94" y2="455.53" gradientTransform="matrix(178.05, 0, 0, -178.05, 2369.96, 81164.23)" xlink:href="#Gradiente_sem_nome_3"/><clipPath id="clip-path-3" transform="translate(0 0)"><path class="cls-1" d="M164.77,67.84c-17.32,25.12-43.11,40-70.67,52.42A262.06,262.06,0,0,1,47.88,136,230.94,230.94,0,0,1,0,142.51c12.13.86,28.08-.7,44.85-4a281.27,281.27,0,0,0,50-14.84C131.3,108.77,157.17,90.72,172,70c13.16-18.41,1.93-36.95-15.33-40.59,17.06,8.35,16.48,26.29,8.14,38.39"/></clipPath><linearGradient id="Gradiente_sem_nome_3-3" x1="-12.93" y1="455.52" x2="-11.93" y2="455.52" gradientTransform="matrix(177.72, 0, 0, -177.72, 2297.3, 81039.89)" xlink:href="#Gradiente_sem_nome_3"/></defs><title>Ativo 1</title><g id="Camada_2" data-name="Camada 2"><g id="Camada_1-2" data-name="Camada 1"><g class="cls-2"><rect class="cls-3" x="41.31" y="28.28" width="144.72" height="150.03"/></g><g class="cls-4"><rect class="cls-5" x="59.04" width="184.8" height="111.93"/></g><g class="cls-6"><rect class="cls-7" y="29.45" width="185.12" height="113.92"/></g></g></g></svg>